HIERARCHY
ROOT Hips
{
	OFFSET 0.00000 0.00000 0.00000
	CHANNELS 6 Xposition Yposition Zposition Zrotation Yrotation Xrotation 
	JOINT LHipJoint
	{
		OFFSET 0 0 0
		CHANNELS 3 Zrotation Yrotation Xrotation
		JOINT LeftHip
		{
			OFFSET 1.70593 -1.62653 0.87602
			CHANNELS 3 Zrotation Yrotation Xrotation
			JOINT LeftKnee
			{
				OFFSET 2.32330 -6.38322 0.00000
				CHANNELS 3 Zrotation Yrotation Xrotation
				JOINT LeftAnkle
				{
					OFFSET 2.45016 -6.73177 0.00000
					CHANNELS 3 Zrotation Yrotation Xrotation
					JOINT LeftToe
					{
						OFFSET 0.13029 -0.35798 1.96980
						CHANNELS 3 Zrotation Yrotation Xrotation
						End Site
						{
							OFFSET 0.00000 -0.00000 1.01270
						}
					}
				}
			}
		}
	}
	JOINT RHipJoint
	{
		OFFSET 0 0 0
		CHANNELS 3 Zrotation Yrotation Xrotation
		JOINT RightHip
		{
			OFFSET -1.80599 -1.62652 0.87602
			CHANNELS 3 Zrotation Yrotation Xrotation
			JOINT RightKnee
			{
				OFFSET -2.45375 -6.74162 0.00000
				CHANNELS 3 Zrotation Yrotation Xrotation
				JOINT RightAnkle
				{
					OFFSET -2.45828 -6.75406 0.00000
					CHANNELS 3 Zrotation Yrotation Xrotation
					JOINT RightToe
					{
						OFFSET -0.13801 -0.37917 1.88456
						CHANNELS 3 Zrotation Yrotation Xrotation
						End Site
						{
							OFFSET -0.00000 -0.00000 0.97281
						}
					}
				}
			}
		}
	}
	JOINT lowerback
	{
		OFFSET 0 0 0
		CHANNELS 3 Zrotation Yrotation Xrotation
		JOINT Chest
		{
			OFFSET 0.01003 2.00576 -0.14267
			CHANNELS 3 Zrotation Yrotation Xrotation
			JOINT Chest2
			{
				OFFSET 0.00908 2.01191 0.01660
				CHANNELS 3 Zrotation Yrotation Xrotation
				JOINT lowerneck
				{
					OFFSET 0 0 0
					CHANNELS 3 Zrotation Yrotation Xrotation
					JOINT Neck
					{
						OFFSET -0.05849 1.60301 0.18934
						CHANNELS 3 Zrotation Yrotation Xrotation
						JOINT Head
						{
							OFFSET 0.01775 1.59435 -0.07960
							CHANNELS 3 Zrotation Yrotation Xrotation
							End Site
							{
								OFFSET 0.01210 1.70732 -0.05248
							}
						}
					}
				}
				JOINT LeftCollar
				{
					OFFSET 0 0 0
					CHANNELS 3 Zrotation Yrotation Xrotation
					JOINT LeftShoulder
					{
						OFFSET 3.15315 1.26460 0.30667
CHANNELS 3 Zrotation Xrotation Yrotation
						JOINT LeftElbow
						{
OFFSET 0 -4.976940 -0.000000
CHANNELS 3 Zrotation Xrotation Yrotation
							JOINT LeftWrist
							{
OFFSET 0 -3.143910 -0.000000
CHANNELS 3 Zrotation Xrotation Yrotation
								JOINT lhand
								{
									OFFSET 0 0 0
CHANNELS 3 Zrotation Xrotation Yrotation
									JOINT LFingers
									{
OFFSET 0 -0.593580 -0.000000
CHANNELS 3 Zrotation Xrotation Yrotation
										End Site
										{
OFFSET 0 -0.478560 -0.000000
										}
									}
								}
								JOINT LThumb
								{
OFFSET 0 0.000000 0.000000
CHANNELS 3 Zrotation Xrotation Yrotation
									End Site
									{
OFFSET 0 -0.485870 0.485870
									}
								}
							}
						}
					}
				}
				JOINT RightCollar
				{
					OFFSET 0 0 0
					CHANNELS 3 Zrotation Yrotation Xrotation
					JOINT RightShoulder
					{
						OFFSET -3.25568 1.35581 0.18982
CHANNELS 3 Zrotation Xrotation Yrotation
						JOINT RightElbow
						{
OFFSET 0 -4.904730 0.000000
CHANNELS 3 Zrotation Xrotation Yrotation
							JOINT RightWrist
							{
OFFSET 0 -3.216210 -0.000040
CHANNELS 3 Zrotation Xrotation Yrotation
								JOINT rhand
								{
									OFFSET 0 0 0
CHANNELS 3 Zrotation Xrotation Yrotation
									JOINT RFingers
									{
OFFSET 0 -0.623530 -0.000000
CHANNELS 3 Zrotation Xrotation Yrotation
										End Site
										{
OFFSET 0 -0.502700 -0.000000
										}
									}
								}
								JOINT RThumb
								{
OFFSET 0 0.000000 0.000000
CHANNELS 3 Zrotation Xrotation Yrotation
									End Site
									{
OFFSET 0 -0.510380 0.510380
									}
								}
							}
						}
					}
				}
			}
		}
	}
}
MOTION
Frames: 8
Frame Time: 0.008333333333333333
8.673200 15.350200 -35.602000 -2.124800 -2.846300 8.565100 0.000000 0.000000 0.000000 -18.504500 -2.649700 -29.334600 11.620400 18.225500 64.780500 0.450700 -3.391100 -11.973000 0.509900 -4.577300 -12.706800 0.000000 0.000000 0.000000 25.012100 14.235000 -22.585100 -4.852600 -13.215800 40.181900 -0.707400 17.243400 -18.064800 -0.000000 -0.010500 0.028900 3.071300 2.063800 2.326100 2.221700 2.957500 -2.383700 0.408500 1.421600 -3.724100 -3.325300 -1.463400 -9.995900 2.691000 -1.865500 14.231000 1.246900 -0.876600 6.009900 0.000000 0.000000 0.000000 3.747500 2.896100 -43.899300 23.791600 -34.943100 7.586900 25.862300 -23.160000 13.722100 0.000000 0.000000 0.000000 -7.125000 0.000000 0.000000 -1.054500 14.799400 -0.750300 0.000000 0.000000 0.000000 -4.086700 10.182200 18.374000 -15.207600 -24.434500 -3.311300 -31.186700 21.381100 35.186300 0.000000 0.000000 0.000000 7.125000 0.000000 -0.000000 2.973300 69.453100 -1.741100
8.680756 15.357268 -35.468041 -2.361764 -2.916936 8.508552 0.000000 0.000000 0.000000 -18.132358 -2.913962 -30.179986 11.495654 18.168660 64.380377 0.573350 -1.126223 -14.098458 1.549206 -7.265309 -20.782623 0.000000 0.000000 0.000000 25.386143 13.869196 -21.801916 -4.752374 -13.098366 39.739659 -0.691459 17.542663 -18.082642 -0.002632 -0.236739 0.650533 3.325862 2.113864 2.447092 2.232912 3.039543 -2.339339 0.270300 1.455626 -3.733216 -3.267680 -1.503325 -9.977083 2.659899 -1.924095 14.186932 1.222819 -0.904435 5.993764 0.000000 0.000000 0.000000 3.702116 3.367639 -43.517555 23.066524 -34.151434 7.180001 25.871026 -22.821494 13.987922 0.000000 0.000000 0.000000 -7.125000 0.000000 0.000000 -1.068978 14.506913 -0.767362 0.000000 0.000000 0.000000 -4.146660 9.782955 19.722757 -15.696932 -25.103273 -3.519064 -31.184116 20.537615 35.348387 0.000000 0.000000 0.000000 7.125000 0.000000 0.000000 3.106674 69.619233 -1.831381
8.688312 15.364337 -35.334081 -2.598727 -2.987571 8.452005 0.000000 0.000000 0.000000 -17.760217 -3.178225 -31.025373 11.370908 18.111820 63.980254 0.695999 1.138654 -16.223916 2.588511 -9.953317 -28.858446 0.000000 0.000000 0.000000 25.760185 13.503391 -21.018732 -4.652149 -12.980933 39.297418 -0.675519 17.841927 -18.100483 -0.005265 -0.462978 1.272167 3.580423 2.163928 2.568085 2.244124 3.121585 -2.294979 0.132099 1.489652 -3.742332 -3.210060 -1.543249 -9.958267 2.628798 -1.982690 14.142864 1.198737 -0.932270 5.977629 0.000000 0.000000 0.000000 3.656731 3.839177 -43.135810 22.341447 -33.359768 6.773102 25.879752 -22.482989 14.253745 0.000000 0.000000 0.000000 -7.125000 0.000000 0.000000 -1.083456 14.214425 -0.784424 0.000000 0.000000 0.000000 -4.206620 9.383709 21.071515 -16.186263 -25.772045 -3.726827 -31.181533 19.694130 35.510474 0.000000 0.000000 0.000000 7.125000 0.000000 0.000000 3.240049 69.785366 -1.921662
8.691706 15.369972 -35.209371 -2.811505 -2.784167 8.620479 0.000000 0.000000 0.000000 -17.325924 -3.753800 -32.085099 11.192520 18.026817 63.403712 0.698554 -0.752718 -15.714174 1.845768 -8.251177 -23.648489 0.000000 0.000000 0.000000 26.074944 13.033076 -20.569012 -4.553171 -12.861187 38.852772 -0.671232 18.104149 -18.192130 -0.014140 -0.720339 1.979860 3.766683 2.146430 2.539293 2.272446 3.106840 -2.325348 0.059288 1.477249 -3.750430 -3.070450 -1.552514 -9.900836 2.571892 -2.008914 14.051627 1.155927 -0.942301 5.937817 0.000000 0.000000 0.000000 3.607786 4.205557 -42.844287 21.613087 -32.526667 6.381186 25.911091 -22.152576 14.302360 0.000000 0.000000 0.000000 -7.125000 0.000000 0.000000 -1.066026 14.157179 -0.773045 0.000000 0.000000 0.000000 -4.268245 8.948301 21.944655 -16.702092 -26.458067 -3.956557 -31.104173 20.132983 36.604048 0.000000 0.000000 0.000000 7.125000 0.000000 0.000000 4.385930 70.871333 -2.739635
8.694874 15.375529 -35.085161 -3.022974 -2.565922 8.801139 0.000000 0.000000 0.000000 -16.888265 -4.346234 -33.156432 11.011226 17.940290 62.817615 0.694606 -2.869158 -15.061732 1.006524 -6.311302 -17.719085 0.000000 0.000000 0.000000 26.386492 12.557102 -20.137349 -4.454262 -12.741316 38.407996 -0.667576 18.364365 -18.287774 -0.023353 -0.979386 2.692213 3.949244 2.125274 2.502391 2.301695 3.086853 -2.359764 -0.009983 1.462333 -3.758474 -2.926400 -1.560119 -9.841315 2.513590 -2.033386 13.957836 1.112103 -0.951368 5.896722 0.000000 0.000000 0.000000 3.558648 4.566243 -42.557649 20.884550 -31.691323 5.990082 25.943654 -21.822602 14.339214 0.000000 0.000000 0.000000 -7.125000 0.000000 0.000000 -1.046868 14.112673 -0.760127 0.000000 0.000000 0.000000 -4.329959 8.510935 22.792040 -17.219356 -27.145022 -4.187475 -31.022764 20.641278 37.748064 0.000000 0.000000 0.000000 7.125000 0.000000 0.000000 5.586639 72.007111 -3.597013
8.698830 15.374569 -34.953035 -3.095963 -2.605523 8.866633 0.000000 0.000000 0.000000 -16.671185 -4.672643 -33.976087 10.800583 17.834386 62.130043 0.707278 -3.904574 -15.070194 0.671378 -5.103978 -14.234286 0.000000 0.000000 0.000000 26.561528 12.029645 -19.604035 -4.356533 -12.619257 37.961033 -0.635882 18.705631 -18.225692 -0.020582 -0.920927 2.531350 3.979766 2.189628 2.495713 2.273689 3.172585 -2.357614 -0.059877 1.503971 -3.746834 -2.907095 -1.570348 -9.755244 2.617430 -2.067392 13.902842 1.139486 -0.959779 5.866431 0.000000 0.000000 0.000000 3.546952 4.980772 -42.303204 20.224683 -30.903786 5.650284 25.947656 -21.454661 14.078682 0.000000 0.000000 0.000000 -7.125000 0.000000 0.000000 -1.023949 14.397787 -0.737455 0.000000 0.000000 0.000000 -4.439394 8.154968 23.846357 -17.773099 -27.859534 -4.445863 -31.774113 21.249824 38.352859 0.000000 0.000000 0.000000 7.125000 0.000000 0.000000 5.033611 72.874327 -3.316113
8.702876 15.372863 -34.820002 -3.153095 -2.674647 8.918939 0.000000 0.000000 0.000000 -16.479362 -4.968591 -34.766924 10.586580 17.726263 61.430852 0.721854 -4.816208 -15.154333 0.393954 -3.980534 -11.029403 0.000000 0.000000 0.000000 26.720934 11.496294 -19.059082 -4.258940 -12.496949 37.513820 -0.600979 19.056177 -18.145551 -0.016439 -0.826112 2.270499 3.992879 2.263773 2.492496 2.239126 3.270422 -2.351277 -0.107553 1.552085 -3.732941 -2.902074 -1.580877 -9.666133 2.739836 -2.102491 13.852290 1.175023 -0.968115 5.837377 0.000000 0.000000 0.000000 3.539542 5.401467 -42.052444 19.572680 -30.121723 5.316361 25.948387 -21.082373 13.784098 0.000000 0.000000 0.000000 -7.125000 0.000000 0.000000 -1.000598 14.720645 -0.713666 0.000000 0.000000 0.000000 -4.554293 7.808322 24.924368 -18.331019 -28.577201 -4.707395 -32.620815 21.869848 38.895911 0.000000 0.000000 0.000000 7.125000 0.000000 0.000000 4.279774 73.710793 -2.904876
8.705521 15.372765 -34.684082 -3.153900 -2.785213 8.940278 0.000000 0.000000 0.000000 -16.371989 -5.195718 -35.466920 10.333774 17.590760 60.594801 0.769170 -4.823221 -15.639486 0.410950 -4.099470 -11.358888 0.000000 0.000000 0.000000 26.813868 10.996097 -18.451988 -4.162501 -12.372496 37.064256 -0.581704 19.348829 -18.156828 -0.009491 -0.536625 1.474826 3.927233 2.328311 2.492165 2.192152 3.350734 -2.318961 -0.122858 1.594096 -3.697564 -2.953834 -1.604685 -9.674873 2.850614 -2.143280 13.853819 1.215220 -0.982265 5.842260 0.000000 0.000000 0.000000 3.534359 5.831068 -41.590189 18.972757 -29.378092 5.020869 25.751807 -20.608275 13.557388 0.000000 0.000000 0.000000 -7.125000 0.000000 0.000000 -1.118191 14.993071 -0.790203 0.000000 0.000000 0.000000 -4.661275 7.436893 26.148765 -18.924525 -29.317836 -4.997298 -33.561864 21.969152 38.871440 0.000000 0.000000 0.000000 7.125000 0.000000 0.000000 2.635952 74.013878 -1.800595
